FILE "Ryuuko no Ken 2 Soundtrack (1994)(Pony Canyon)(JP)[CD-Audio].img" BINARY
  TRACK 01 AUDIO
    ISRC JPPC09331140
    INDEX 01 00:00:00
  TRACK 02 AUDIO
    ISRC JPPC09331150
    INDEX 01 00:43:02
  TRACK 03 AUDIO
    ISRC JPPC09331160
    INDEX 01 01:24:45
  TRACK 04 AUDIO
    ISRC JPPC09331170
    INDEX 01 04:31:45
  TRACK 05 AUDIO
    ISRC JPPC09331180
    INDEX 01 05:17:30
  TRACK 06 AUDIO
    ISRC JPPC09331190
    INDEX 01 07:49:00
  TRACK 07 AUDIO
    ISRC JPPC09331200
    INDEX 01 10:48:30
  TRACK 08 AUDIO
    ISRC JPPC09331210
    INDEX 01 13:03:42
  TRACK 09 AUDIO
    ISRC JPPC09331220
    INDEX 01 15:22:47
  TRACK 10 AUDIO
    ISRC JPPC09331230
    INDEX 01 15:52:20
  TRACK 11 AUDIO
    ISRC JPPC09331240
    INDEX 01 18:56:65
  TRACK 12 AUDIO
    ISRC JPPC09331250
    INDEX 01 19:25:17
  TRACK 13 AUDIO
    ISRC JPPC09331260
    INDEX 01 19:34:10
  TRACK 14 AUDIO
    ISRC JPPC09331270
    INDEX 01 20:43:07
  TRACK 15 AUDIO
    ISRC JPPC09331280
    INDEX 01 21:26:07
  TRACK 16 AUDIO
    ISRC JPPC09331290
    INDEX 01 22:00:05
  TRACK 17 AUDIO
    ISRC JPPC09331300
    INDEX 01 24:14:32
  TRACK 18 AUDIO
    ISRC JPPC09331310
    INDEX 01 26:07:55
  TRACK 19 AUDIO
    ISRC JPPC09331320
    INDEX 01 28:21:07
  TRACK 20 AUDIO
    ISRC JPPC09331330
    INDEX 01 30:43:02
  TRACK 21 AUDIO
    ISRC JPPC09331340
    INDEX 01 32:38:02
  TRACK 22 AUDIO
    ISRC JPPC09331350
    INDEX 01 35:03:05
  TRACK 23 AUDIO
    ISRC JPPC09331360
    INDEX 01 35:55:05
  TRACK 24 AUDIO
    ISRC JPPC09331370
    INDEX 01 36:21:70
  TRACK 25 AUDIO
    ISRC JPPC09331380
    INDEX 01 39:17:50
  TRACK 26 AUDIO
    ISRC JPPC09331390
    INDEX 01 40:04:22
  TRACK 27 AUDIO
    ISRC JPPC09331400
    INDEX 01 40:53:17
  TRACK 28 AUDIO
    ISRC JPPC09331410
    INDEX 01 41:32:35
  TRACK 29 AUDIO
    ISRC JPPC09331420
    INDEX 01 42:08:72
  TRACK 30 AUDIO
    ISRC JPPC09331430
    INDEX 01 42:43:65
  TRACK 31 AUDIO
    ISRC JPPC09331440
    INDEX 01 43:14:45
  TRACK 32 AUDIO
    ISRC JPPC09331450
    INDEX 01 43:48:62
  TRACK 33 AUDIO
    ISRC JPPC09331460
    INDEX 01 44:44:22
  TRACK 34 AUDIO
    ISRC JPPC09331470
    INDEX 01 47:29:07
  TRACK 35 AUDIO
    ISRC JPPC09331480
    INDEX 00 47:44:12
    INDEX 01 47:46:62
  TRACK 36 AUDIO
    ISRC JPPC09331490
    INDEX 01 48:05:27
  TRACK 37 AUDIO
    ISRC JPPC09331500
    INDEX 01 48:30:42
  TRACK 38 AUDIO
    ISRC JPPC09331510
    INDEX 01 48:47:10
  TRACK 39 AUDIO
    ISRC JPPC09331520
    INDEX 01 49:09:05
  TRACK 40 AUDIO
    ISRC JPPC09331530
    INDEX 01 49:32:72
  TRACK 41 AUDIO
    ISRC JPPC09331540
    INDEX 01 49:58:20
  TRACK 42 AUDIO
    ISRC JPPC09331550
    INDEX 01 50:29:20
  TRACK 43 AUDIO
    ISRC JPPC09331560
    INDEX 01 50:51:60
  TRACK 44 AUDIO
    ISRC JPPC09331570
    INDEX 01 51:19:07
  TRACK 45 AUDIO
    ISRC JPPC09331580
    INDEX 01 51:51:22
  TRACK 46 AUDIO
    ISRC JPPC09331590
    INDEX 01 52:14:67
  TRACK 47 AUDIO
    ISRC JPPC09331600
    INDEX 01 52:36:37
  TRACK 48 AUDIO
    ISRC JPPC09331610
    INDEX 01 52:55:22
  TRACK 49 AUDIO
    ISRC JPPC09331620
    INDEX 01 53:29:72
  TRACK 50 AUDIO
    ISRC JPPC09331630
    INDEX 01 54:54:32
